# xmcd CD database file
#
# Track frame offsets:
#	150
#	20578
#	40013
#	64172
#	78063
#	89818
#	114269
#	163545
#	194964
#	208935
#	228804
#	245043
#	257382
#	277048
#	284564
#	308453
#
# Disc length: 4590 seconds
#
# Revision: 1
# Processed by: cddbd v1.5.2PL0 Copyright (c) Steve Scherf et al.
# Submitted via: CDex 1.51
#
DISCID=e111ec10
DTITLE=David Crosby - Voyage - Disc 3
DYEAR=2006
DGENRE=
TTITLE0=Crosby and Stills - Long Time Gone
TTITLE1=Guinnevere
TTITLE2=Almost Cut My Hair
TTITLE3=Games
TTITLE4=Crosby and Nash - Deja Vu
TTITLE5=Triad
TTITLE6=Cowboy Movie
TTITLE7=Kids and Dogs
TTITLE8=Paul Kantner/Jefferson Starship - Have You Seen The Stars Tonite
TTITLE9=Crosby and Nash - The Lee Shore
TTITLE10=Crosby and Nash - Traction In The Rain
TTITLE11=King Of The Mountain
TTITLE12=Crosby, Stills, Nash and Young - Homeward Through The Haze
TTITLE13=Samurai
TTITLE14=Crosby, Stills, Nash and Young - Climber
TTITLE15=Crosby, Stills, Nash and Young - Dream For Him
EXTD=YEAR: 2006
EXTT0=
EXTT1=
EXTT2=
EXTT3=
EXTT4=
EXTT5=
EXTT6=
EXTT7=
EXTT8=
EXTT9=
EXTT10=
EXTT11=
EXTT12=
EXTT13=
EXTT14=
EXTT15=
PLAYORDER=
